M48
; DRILL file {KiCad 9.0.0} date 2025-03-11T12:15:16+0100
; FORMAT={-:-/ absolute / metric / decimal}
; #@! TF.CreationDate,2025-03-11T12:15:16+01:00
; #@! TF.GenerationSoftware,Kicad,Pcbnew,9.0.0
; #@! TF.FileFunction,Plated,1,6,PTH
FMAT,2
METRIC
; #@! TA.AperFunction,Plated,PTH,ViaDrill
T1C0.300
; #@! TA.AperFunction,Plated,PTH,ComponentDrill
T2C0.740
; #@! TA.AperFunction,Plated,PTH,ComponentDrill
T3C0.965
; #@! TA.AperFunction,Plated,PTH,ComponentDrill
T4C1.500
%
G90
G05
T1
X157.4Y-153.4
X157.4Y-154.6
X157.4Y-155.8
X157.4Y-157.0
X157.4Y-158.4
X158.6Y-153.4
X158.6Y-158.4
X159.8Y-153.4
X160.0Y-118.8
X162.5Y-153.25
X162.6Y-115.6
X162.6Y-154.25
X162.6Y-155.5
X162.6Y-156.75
X162.6Y-158.0
X163.75Y-153.25
X165.0Y-153.25
X166.25Y-153.25
X167.5Y-153.25
X167.895Y-154.75
X167.895Y-155.75
X168.75Y-153.25
X169.25Y-157.25
X170.0Y-153.25
X170.0Y-154.5
X170.0Y-155.75
X170.571Y-143.25
X170.571Y-144.25
X170.875Y-118.725
X172.071Y-146.0
X173.6Y-115.6
X176.0Y-124.4
X180.0Y-153.0
X180.0Y-154.0
X180.0Y-155.0
X180.0Y-156.0
X180.0Y-157.0
X180.0Y-158.0
X180.0Y-159.0
X180.2Y-141.0
X180.2Y-142.2
X180.2Y-143.4
X180.2Y-144.6
X180.2Y-145.8
X180.2Y-147.0
X180.2Y-148.2
X180.2Y-149.4
X180.2Y-150.6
X181.0Y-153.0
X181.0Y-159.0
X181.4Y-141.0
X181.4Y-142.2
X181.4Y-143.4
X181.4Y-144.6
X181.4Y-145.8
X181.4Y-147.0
X181.4Y-148.2
X181.4Y-149.4
X181.4Y-150.6
X181.5Y-157.0
X182.0Y-153.0
X182.0Y-159.0
X182.25Y-118.8
X182.76Y-154.5
X182.76Y-155.5
X183.0Y-153.0
X183.0Y-159.0
X183.4Y-128.035
X183.4Y-129.45
X183.4Y-130.45
X183.4Y-131.45
X184.0Y-133.45
X184.0Y-153.0
X184.0Y-159.0
X184.8Y-115.6
X185.0Y-142.6
X185.0Y-143.8
X185.0Y-145.6
X185.0Y-146.8
X185.0Y-148.4
X185.0Y-153.0
X185.0Y-159.0
X185.6Y-133.45
X185.8Y-130.45
X185.8Y-131.45
X186.0Y-153.0
X186.0Y-159.0
X186.2Y-142.6
X186.2Y-143.8
X186.2Y-145.6
X186.2Y-146.8
X186.2Y-148.4
X187.0Y-153.0
X187.0Y-159.0
X187.4Y-142.6
X187.4Y-143.8
X187.4Y-145.6
X187.4Y-146.8
X187.4Y-148.4
X188.6Y-142.6
X188.6Y-143.8
X188.6Y-145.6
X188.6Y-146.8
X188.6Y-148.4
X189.25Y-152.75
X189.25Y-153.75
X189.25Y-154.75
X189.25Y-155.75
X189.25Y-156.75
X189.25Y-157.75
X189.25Y-159.25
X189.4Y-124.45
X189.8Y-142.6
X189.8Y-143.8
X189.8Y-145.6
X189.8Y-146.8
X189.8Y-148.4
X190.13Y-122.7
X190.25Y-152.75
X190.25Y-159.25
X191.0Y-124.45
X191.0Y-142.6
X191.0Y-143.8
X191.0Y-145.6
X191.0Y-146.8
X191.0Y-148.4
X191.2Y-122.05
X191.2Y-125.45
X191.2Y-126.25
X191.25Y-152.75
X191.25Y-159.25
X191.6Y-129.85
X192.2Y-142.6
X192.2Y-143.8
X192.2Y-145.6
X192.2Y-146.8
X192.2Y-148.4
X192.25Y-152.75
X192.25Y-159.25
X192.4Y-121.65
X192.4Y-125.05
X193.25Y-118.75
X193.25Y-152.75
X193.25Y-159.25
X194.25Y-152.75
X194.25Y-159.25
X194.75Y-155.0
X194.75Y-156.0
X195.25Y-152.75
X195.25Y-159.25
X196.2Y-115.6
X196.2Y-141.0
X196.2Y-142.2
X196.2Y-143.4
X196.2Y-144.6
X196.2Y-145.8
X196.2Y-147.0
X196.2Y-148.2
X196.2Y-149.4
X196.2Y-150.6
X196.25Y-152.75
X196.25Y-157.5
X196.25Y-159.25
X197.25Y-152.75
X197.25Y-153.75
X197.25Y-154.75
X197.25Y-155.75
X197.25Y-159.25
X197.4Y-141.0
X197.4Y-142.2
X197.4Y-143.4
X197.4Y-144.6
X197.4Y-145.8
X197.4Y-147.0
X197.4Y-148.2
X197.4Y-149.4
X197.4Y-150.6
X199.0Y-141.0
X199.0Y-142.2
X199.0Y-143.4
X199.0Y-144.6
X199.0Y-145.8
X199.0Y-147.0
X199.0Y-148.2
X199.0Y-149.4
X199.0Y-150.6
X200.2Y-141.0
X200.2Y-142.2
X200.2Y-143.4
X200.2Y-144.6
X200.2Y-145.8
X200.2Y-147.0
X200.2Y-148.2
X200.2Y-149.4
X200.2Y-150.6
X202.0Y-141.0
X202.0Y-142.2
X202.0Y-143.4
X202.0Y-144.6
X202.0Y-145.8
X202.0Y-147.0
X202.0Y-148.2
X202.0Y-149.4
X202.0Y-150.6
X203.2Y-141.0
X203.2Y-142.2
X203.2Y-143.4
X203.2Y-144.6
X203.2Y-145.8
X203.2Y-147.0
X203.2Y-148.2
X203.2Y-149.4
X203.2Y-150.6
X206.4Y-141.2
X206.4Y-142.4
X206.4Y-143.6
X206.4Y-144.8
X206.4Y-146.0
X206.4Y-147.2
X206.4Y-148.4
X206.4Y-149.6
X206.4Y-150.8
X207.6Y-141.2
X207.6Y-142.4
X207.6Y-143.6
X207.6Y-144.8
X207.6Y-146.0
X207.6Y-147.2
X207.6Y-148.4
X207.6Y-149.6
X207.6Y-150.8
X209.0Y-115.4
X209.0Y-118.6
X209.0Y-141.2
X209.0Y-142.4
X209.0Y-143.6
X209.0Y-144.8
X209.0Y-146.0
X209.0Y-147.2
X209.0Y-148.4
X209.0Y-149.6
X209.0Y-150.8
X210.0Y-120.25
X210.2Y-141.2
X210.2Y-142.4
X210.2Y-143.6
X210.2Y-144.8
X210.2Y-146.0
X210.2Y-147.2
X210.2Y-148.4
X210.2Y-149.6
X210.2Y-150.8
X210.4Y-118.2
X211.0Y-116.4
X211.75Y-153.0
X211.75Y-154.0
X211.75Y-155.0
X211.75Y-156.0
X211.75Y-157.0
X211.75Y-158.0
X211.75Y-159.0
X211.8Y-141.2
X211.8Y-142.4
X211.8Y-143.6
X211.8Y-144.8
X211.8Y-146.0
X211.8Y-147.2
X211.8Y-148.4
X211.8Y-149.6
X211.8Y-150.8
X212.0Y-116.4
X212.6Y-118.2
X212.75Y-153.0
X212.75Y-159.0
X213.0Y-141.2
X213.0Y-142.4
X213.0Y-143.6
X213.0Y-144.8
X213.0Y-146.0
X213.0Y-147.2
X213.0Y-148.4
X213.0Y-149.6
X213.0Y-150.8
X213.25Y-157.0
X213.75Y-153.0
X213.75Y-159.0
X214.5Y-154.5
X214.5Y-155.5
X214.75Y-153.0
X214.75Y-159.0
X215.2Y-126.2
X215.6Y-127.2
X215.75Y-153.0
X215.75Y-159.0
X216.4Y-124.8
X216.4Y-127.6
X216.6Y-142.6
X216.6Y-143.8
X216.6Y-145.6
X216.6Y-146.8
X216.6Y-148.4
X216.75Y-153.0
X216.75Y-159.0
X217.6Y-126.4
X217.75Y-153.0
X217.75Y-159.0
X217.8Y-142.6
X217.8Y-143.8
X217.8Y-145.6
X217.8Y-146.8
X217.8Y-148.4
X218.2Y-125.4
X218.6Y-122.0
X218.75Y-153.0
X218.75Y-159.0
X218.8Y-126.6
X219.0Y-142.6
X219.0Y-143.8
X219.0Y-145.6
X219.0Y-146.8
X219.0Y-148.4
X219.4Y-115.4
X219.4Y-118.6
X220.2Y-142.6
X220.2Y-143.8
X220.2Y-145.6
X220.2Y-146.8
X220.2Y-148.4
X220.5Y-120.25
X220.8Y-118.2
X221.0Y-153.0
X221.0Y-154.0
X221.0Y-155.0
X221.0Y-156.0
X221.0Y-157.0
X221.0Y-158.0
X221.0Y-159.0
X221.4Y-116.4
X221.4Y-142.6
X221.4Y-143.8
X221.4Y-145.6
X221.4Y-146.8
X221.4Y-148.4
X222.0Y-153.0
X222.4Y-116.4
X222.6Y-142.6
X222.6Y-143.8
X222.6Y-145.6
X222.6Y-146.8
X222.6Y-148.4
X223.0Y-153.0
X223.2Y-118.2
X223.8Y-142.6
X223.8Y-143.8
X223.8Y-145.6
X223.8Y-146.8
X223.8Y-148.4
X224.0Y-153.0
X225.0Y-153.0
X225.8Y-126.2
X225.8Y-127.2
X225.8Y-129.2
X226.0Y-153.0
X226.27Y-155.0
X226.27Y-156.0
X226.6Y-125.4
X227.0Y-153.0
X227.8Y-157.5
X228.0Y-141.0
X228.0Y-142.2
X228.0Y-143.4
X228.0Y-144.6
X228.0Y-145.8
X228.0Y-147.0
X228.0Y-148.2
X228.0Y-149.4
X228.0Y-150.6
X228.0Y-153.0
X228.2Y-126.2
X228.2Y-127.2
X228.2Y-128.4
X229.0Y-122.0
X229.0Y-153.0
X229.0Y-159.0
X229.2Y-141.0
X229.2Y-142.2
X229.2Y-143.4
X229.2Y-144.6
X229.2Y-145.8
X229.2Y-147.0
X229.2Y-148.2
X229.2Y-149.4
X229.2Y-150.6
X230.0Y-153.0
X230.0Y-154.0
X230.0Y-155.0
X230.0Y-156.0
X230.0Y-157.0
X230.0Y-158.0
X230.0Y-159.0
X231.2Y-115.2
X231.2Y-118.6
X232.5Y-120.25
X232.6Y-118.2
X233.2Y-116.4
X234.2Y-116.4
X234.412Y-142.75
X235.0Y-118.2
X235.912Y-144.25
X235.912Y-145.25
X237.6Y-126.0
X237.6Y-126.8
X238.6Y-127.4
X238.8Y-124.4
X240.2Y-153.4
X240.2Y-154.6
X240.2Y-155.8
X240.2Y-157.0
X240.2Y-158.4
X240.4Y-125.2
X240.6Y-126.2
X241.0Y-122.0
X241.4Y-153.4
X241.4Y-158.4
X242.0Y-115.2
X242.0Y-118.6
X242.0Y-127.4
X242.6Y-153.4
X243.2Y-118.2
X243.25Y-120.25
X244.0Y-116.4
X245.0Y-116.4
X245.4Y-154.0
X245.4Y-155.0
X245.4Y-156.0
X245.4Y-157.0
X245.4Y-158.0
X245.5Y-153.25
X245.8Y-118.2
X246.75Y-153.25
X248.0Y-153.25
X248.2Y-126.2
X248.8Y-126.6
X248.8Y-128.4
X249.25Y-153.25
X249.6Y-124.6
X250.27Y-154.75
X250.27Y-155.75
X250.5Y-153.25
X251.2Y-126.4
X251.4Y-125.4
X251.4Y-127.6
X251.75Y-153.25
X252.0Y-121.8
X252.0Y-157.25
T2
X201.709Y-110.338
X201.709Y-123.038
X204.249Y-115.418
T3
X157.291Y-107.71
X157.291Y-112.79
X159.831Y-110.25
X162.371Y-107.71
X162.371Y-112.79
X168.431Y-107.71
X168.431Y-112.79
X170.971Y-110.25
X173.511Y-107.71
X173.511Y-112.79
X179.57Y-107.71
X179.57Y-112.79
X182.11Y-110.25
X184.65Y-107.71
X184.65Y-112.79
X190.71Y-107.71
X190.71Y-112.79
X193.25Y-110.25
X195.79Y-107.71
X195.79Y-112.79
X211.07Y-107.71
X211.07Y-112.79
X213.61Y-110.25
X216.15Y-107.71
X216.15Y-112.79
X222.21Y-107.71
X222.21Y-112.79
X224.75Y-110.25
X227.29Y-107.71
X227.29Y-112.79
X233.35Y-107.71
X233.35Y-112.79
X235.89Y-110.25
X238.43Y-107.71
X238.43Y-112.79
X244.489Y-107.71
X244.489Y-112.79
X247.029Y-110.25
X249.569Y-107.71
X249.569Y-112.79
T4
X197.75Y-165.75
X202.75Y-165.75
X207.75Y-165.75
M30
