%TF.GenerationSoftware,KiCad,Pcbnew,9.0.0*%
%TF.CreationDate,2025-03-13T08:47:34+01:00*%
%TF.ProjectId,zdc_fifo_test,7a64635f-6669-4666-9f5f-746573742e6b,rev?*%
%TF.SameCoordinates,Original*%
%TF.FileFunction,Legend,Bot*%
%TF.FilePolarity,Positive*%
%FSLAX46Y46*%
G04 Gerber Fmt 4.6, Leading zero omitted, Abs format (unit mm)*
G04 Created by KiCad (PCBNEW 9.0.0) date 2025-03-13 08:47:34*
%MOMM*%
%LPD*%
G01*
G04 APERTURE LIST*
%ADD10C,1.473200*%
%ADD11C,1.152000*%
%ADD12C,2.300000*%
%ADD13C,3.200000*%
%ADD14C,1.240000*%
G04 APERTURE END LIST*
%LPC*%
D10*
%TO.C,J1*%
X159830960Y-110250000D03*
X157290960Y-107710000D03*
X157290960Y-112790000D03*
X162370960Y-112790000D03*
X162370960Y-107710000D03*
%TD*%
D11*
%TO.C,REF\u002A\u002A*%
X155600000Y-169200000D03*
%TD*%
D10*
%TO.C,J2*%
X170970640Y-110250000D03*
X168430640Y-107710000D03*
X168430640Y-112790000D03*
X173510640Y-112790000D03*
X173510640Y-107710000D03*
%TD*%
D12*
%TO.C,U1*%
X207750000Y-165750000D03*
X202750000Y-165750000D03*
X197750000Y-165750000D03*
%TD*%
D13*
%TO.C,REFy2*%
X248800000Y-165000000D03*
%TD*%
D10*
%TO.C,J6*%
X224750000Y-110250000D03*
X222210000Y-107710000D03*
X222210000Y-112790000D03*
X227290000Y-112790000D03*
X227290000Y-107710000D03*
%TD*%
D14*
%TO.C,VR2*%
X201708620Y-123038500D03*
X204248620Y-115418500D03*
X201708620Y-110338500D03*
%TD*%
D13*
%TO.C,REFy4*%
X158000000Y-135800000D03*
%TD*%
D10*
%TO.C,J7*%
X235889680Y-110250000D03*
X233349680Y-107710000D03*
X233349680Y-112790000D03*
X238429680Y-112790000D03*
X238429680Y-107710000D03*
%TD*%
%TO.C,J4*%
X193250000Y-110250000D03*
X190710000Y-107710000D03*
X190710000Y-112790000D03*
X195790000Y-112790000D03*
X195790000Y-107710000D03*
%TD*%
D11*
%TO.C,REF\u002A\u002A*%
X155600000Y-115600000D03*
%TD*%
D13*
%TO.C,REFy3*%
X158000000Y-165000000D03*
%TD*%
%TO.C,REFy1*%
X248800000Y-135800000D03*
%TD*%
D10*
%TO.C,J5*%
X213610320Y-110250000D03*
X211070320Y-107710000D03*
X211070320Y-112790000D03*
X216150320Y-112790000D03*
X216150320Y-107710000D03*
%TD*%
%TO.C,J3*%
X182110320Y-110250000D03*
X179570320Y-107710000D03*
X179570320Y-112790000D03*
X184650320Y-112790000D03*
X184650320Y-107710000D03*
%TD*%
%TO.C,J8*%
X247029360Y-110250000D03*
X244489360Y-107710000D03*
X244489360Y-112790000D03*
X249569360Y-112790000D03*
X249569360Y-107710000D03*
%TD*%
D11*
%TO.C,REF\u002A\u002A*%
X250800000Y-169200000D03*
%TD*%
%LPD*%
M02*
