M48
; DRILL file {KiCad 9.0.0} date 2025-03-12T11:47:34+0100
; FORMAT={-:-/ absolute / inch / decimal}
; #@! TF.CreationDate,2025-03-12T11:47:34+01:00
; #@! TF.GenerationSoftware,Kicad,Pcbnew,9.0.0
; #@! TF.FileFunction,Plated,1,6,PTH
FMAT,2
INCH
; #@! TA.AperFunction,Plated,PTH,ViaDrill
T1C0.0118
; #@! TA.AperFunction,Plated,PTH,ComponentDrill
T2C0.0291
; #@! TA.AperFunction,Plated,PTH,ComponentDrill
T3C0.0380
; #@! TA.AperFunction,Plated,PTH,ComponentDrill
T4C0.0591
%
G90
G05
T1
X6.1969Y-6.0394
X6.1969Y-6.0866
X6.1969Y-6.1339
X6.1969Y-6.1811
X6.1969Y-6.2362
X6.2441Y-6.0394
X6.2441Y-6.2362
X6.2913Y-6.0394
X6.2992Y-4.7244
X6.3976Y-6.0335
X6.4016Y-4.5512
X6.4016Y-6.0728
X6.4016Y-6.122
X6.4016Y-6.1713
X6.4016Y-6.2205
X6.4469Y-6.0335
X6.4961Y-6.0335
X6.5453Y-6.0335
X6.5945Y-6.0335
X6.61Y-6.0925
X6.61Y-6.1319
X6.6437Y-6.0335
X6.6634Y-6.1909
X6.6929Y-6.0335
X6.6929Y-6.0827
X6.6929Y-6.1319
X6.7041Y-5.6398
X6.7244Y-4.7165
X6.7446Y-5.6929
X6.7631Y-5.7638
X6.8346Y-4.5512
X6.9291Y-4.8976
X7.0866Y-6.0236
X7.0866Y-6.063
X7.0866Y-6.1024
X7.0866Y-6.1417
X7.0866Y-6.1811
X7.0866Y-6.2205
X7.0866Y-6.2598
X7.0945Y-5.5512
X7.0945Y-5.5984
X7.0945Y-5.6457
X7.0945Y-5.6929
X7.0945Y-5.7402
X7.0945Y-5.7874
X7.0945Y-5.8346
X7.0945Y-5.8819
X7.0945Y-5.9291
X7.126Y-6.0236
X7.126Y-6.2598
X7.1417Y-5.5512
X7.1417Y-5.5984
X7.1417Y-5.6457
X7.1417Y-5.6929
X7.1417Y-5.7402
X7.1417Y-5.7874
X7.1417Y-5.8346
X7.1417Y-5.8819
X7.1417Y-5.9291
X7.1462Y-6.1969
X7.1654Y-6.0236
X7.1654Y-6.126
X7.1654Y-6.2598
X7.1732Y-4.7165
X7.2028Y-6.0787
X7.2047Y-6.0236
X7.2047Y-6.2598
X7.2205Y-5.0407
X7.2205Y-5.0965
X7.2205Y-5.1358
X7.2205Y-5.1752
X7.2441Y-5.2539
X7.2441Y-6.0236
X7.2441Y-6.2598
X7.2756Y-4.5512
X7.2835Y-5.6142
X7.2835Y-5.6614
X7.2835Y-5.7323
X7.2835Y-5.7795
X7.2835Y-5.8425
X7.2835Y-6.0236
X7.2835Y-6.2598
X7.3071Y-5.2539
X7.315Y-5.1358
X7.315Y-5.1752
X7.3228Y-6.0236
X7.3228Y-6.2598
X7.3307Y-5.6142
X7.3307Y-5.6614
X7.3307Y-5.7323
X7.3307Y-5.7795
X7.3307Y-5.8425
X7.3622Y-6.0236
X7.3622Y-6.2598
X7.378Y-5.6142
X7.378Y-5.6614
X7.378Y-5.7323
X7.378Y-5.7795
X7.378Y-5.8425
X7.4252Y-5.6142
X7.4252Y-5.6614
X7.4252Y-5.7323
X7.4252Y-5.7795
X7.4252Y-5.8425
X7.4508Y-6.0138
X7.4508Y-6.0531
X7.4508Y-6.0925
X7.4508Y-6.1319
X7.4508Y-6.1713
X7.4508Y-6.2106
X7.4508Y-6.2697
X7.4567Y-4.8996
X7.4724Y-5.6142
X7.4724Y-5.6614
X7.4724Y-5.7323
X7.4724Y-5.7795
X7.4724Y-5.8425
X7.4854Y-4.8307
X7.4862Y-6.4646
X7.4862Y-6.5429
X7.4862Y-6.6213
X7.4902Y-6.0138
X7.4902Y-6.2697
X7.5197Y-4.8996
X7.5197Y-5.6142
X7.5197Y-5.6614
X7.5197Y-5.7323
X7.5197Y-5.7795
X7.5197Y-5.8425
X7.5276Y-4.8051
X7.5276Y-4.939
X7.5276Y-4.9705
X7.5295Y-6.0138
X7.5295Y-6.2697
X7.5433Y-5.1122
X7.5669Y-5.6142
X7.5669Y-5.6614
X7.5669Y-5.7323
X7.5669Y-5.7795
X7.5669Y-5.8425
X7.5689Y-6.0138
X7.5689Y-6.2697
X7.5748Y-4.7894
X7.5748Y-4.9232
X7.6083Y-6.0138
X7.6083Y-6.2697
X7.6142Y-4.7165
X7.6476Y-6.0138
X7.6476Y-6.2697
X7.6673Y-6.1024
X7.6673Y-6.1417
X7.687Y-6.0138
X7.687Y-6.2697
X7.7244Y-4.5512
X7.7244Y-5.5512
X7.7244Y-5.5984
X7.7244Y-5.6457
X7.7244Y-5.6929
X7.7244Y-5.7402
X7.7244Y-5.7874
X7.7244Y-5.8346
X7.7244Y-5.8819
X7.7244Y-5.9291
X7.7264Y-6.0138
X7.7264Y-6.2008
X7.7264Y-6.2697
X7.7657Y-6.0138
X7.7657Y-6.0531
X7.7657Y-6.0925
X7.7657Y-6.1319
X7.7657Y-6.2697
X7.7717Y-5.5512
X7.7717Y-5.5984
X7.7717Y-5.6457
X7.7717Y-5.6929
X7.7717Y-5.7402
X7.7717Y-5.7874
X7.7717Y-5.8346
X7.7717Y-5.8819
X7.7717Y-5.9291
X7.8346Y-5.5512
X7.8346Y-5.5984
X7.8346Y-5.6457
X7.8346Y-5.6929
X7.8346Y-5.7402
X7.8346Y-5.7874
X7.8346Y-5.8346
X7.8346Y-5.8819
X7.8346Y-5.9291
X7.8819Y-5.5512
X7.8819Y-5.5984
X7.8819Y-5.6457
X7.8819Y-5.6929
X7.8819Y-5.7402
X7.8819Y-5.7874
X7.8819Y-5.8346
X7.8819Y-5.8819
X7.8819Y-5.9291
X7.9528Y-5.5512
X7.9528Y-5.5984
X7.9528Y-5.6457
X7.9528Y-5.6929
X7.9528Y-5.7402
X7.9528Y-5.7874
X7.9528Y-5.8346
X7.9528Y-5.8819
X7.9528Y-5.9291
X8.0Y-5.5512
X8.0Y-5.5984
X8.0Y-5.6457
X8.0Y-5.6929
X8.0Y-5.7402
X8.0Y-5.7874
X8.0Y-5.8346
X8.0Y-5.8819
X8.0Y-5.9291
X8.126Y-5.5591
X8.126Y-5.6063
X8.126Y-5.6535
X8.126Y-5.7008
X8.126Y-5.748
X8.126Y-5.7953
X8.126Y-5.8425
X8.126Y-5.8898
X8.126Y-5.937
X8.1732Y-5.5591
X8.1732Y-5.6063
X8.1732Y-5.6535
X8.1732Y-5.7008
X8.1732Y-5.748
X8.1732Y-5.7953
X8.1732Y-5.8425
X8.1732Y-5.8898
X8.1732Y-5.937
X8.2283Y-4.5433
X8.2283Y-4.6693
X8.2283Y-5.5591
X8.2283Y-5.6063
X8.2283Y-5.6535
X8.2283Y-5.7008
X8.2283Y-5.748
X8.2283Y-5.7953
X8.2283Y-5.8425
X8.2283Y-5.8898
X8.2283Y-5.937
X8.2677Y-4.7343
X8.2756Y-5.5591
X8.2756Y-5.6063
X8.2756Y-5.6535
X8.2756Y-5.7008
X8.2756Y-5.748
X8.2756Y-5.7953
X8.2756Y-5.8425
X8.2756Y-5.8898
X8.2756Y-5.937
X8.2835Y-4.6535
X8.3071Y-4.5827
X8.3307Y-6.4094
X8.3307Y-6.4878
X8.3307Y-6.5669
X8.3366Y-6.0236
X8.3366Y-6.063
X8.3366Y-6.1024
X8.3366Y-6.1417
X8.3366Y-6.1811
X8.3366Y-6.2205
X8.3366Y-6.2598
X8.3386Y-5.5591
X8.3386Y-5.6063
X8.3386Y-5.6535
X8.3386Y-5.7008
X8.3386Y-5.748
X8.3386Y-5.7953
X8.3386Y-5.8425
X8.3386Y-5.8898
X8.3386Y-5.937
X8.3465Y-4.5827
X8.3701Y-4.6535
X8.376Y-6.0236
X8.376Y-6.2598
X8.3858Y-5.5591
X8.3858Y-5.6063
X8.3858Y-5.6535
X8.3858Y-5.7008
X8.3858Y-5.748
X8.3858Y-5.7953
X8.3858Y-5.8425
X8.3858Y-5.8898
X8.3858Y-5.937
X8.3957Y-6.1969
X8.4094Y-6.1181
X8.4154Y-6.0236
X8.4154Y-6.2598
X8.4547Y-6.0236
X8.4547Y-6.2598
X8.4587Y-6.0709
X8.4724Y-4.9685
X8.4882Y-5.0079
X8.4882Y-6.4094
X8.4882Y-6.4878
X8.4882Y-6.5661
X8.4941Y-6.0236
X8.4941Y-6.2598
X8.5197Y-4.9134
X8.5197Y-5.0236
X8.5276Y-5.6142
X8.5276Y-5.6614
X8.5276Y-5.7323
X8.5276Y-5.7795
X8.5276Y-5.8425
X8.5335Y-6.0236
X8.5335Y-6.2598
X8.5669Y-4.9764
X8.5728Y-6.0236
X8.5728Y-6.2598
X8.5748Y-5.6142
X8.5748Y-5.6614
X8.5748Y-5.7323
X8.5748Y-5.7795
X8.5748Y-5.8425
X8.5906Y-4.937
X8.6063Y-4.8031
X8.6122Y-6.0236
X8.6122Y-6.2598
X8.6142Y-4.9843
X8.622Y-5.6142
X8.622Y-5.6614
X8.622Y-5.7323
X8.622Y-5.7795
X8.622Y-5.8425
X8.6378Y-4.5433
X8.6378Y-4.6693
X8.6693Y-5.6142
X8.6693Y-5.6614
X8.6693Y-5.7323
X8.6693Y-5.7795
X8.6693Y-5.8425
X8.6811Y-4.7343
X8.6929Y-4.6535
X8.7008Y-6.0236
X8.7008Y-6.063
X8.7008Y-6.1024
X8.7008Y-6.1417
X8.7008Y-6.1811
X8.7008Y-6.2205
X8.7008Y-6.2598
X8.7165Y-4.5827
X8.7165Y-5.6142
X8.7165Y-5.6614
X8.7165Y-5.7323
X8.7165Y-5.7795
X8.7165Y-5.8425
X8.7402Y-6.0236
X8.7559Y-4.5827
X8.7638Y-5.6142
X8.7638Y-5.6614
X8.7638Y-5.7323
X8.7638Y-5.7795
X8.7638Y-5.8425
X8.7795Y-6.0236
X8.7874Y-4.6535
X8.811Y-5.6142
X8.811Y-5.6614
X8.811Y-5.7323
X8.811Y-5.7795
X8.811Y-5.8425
X8.8189Y-6.0236
X8.8583Y-6.0236
X8.8898Y-4.9685
X8.8898Y-5.0079
X8.8898Y-5.0866
X8.8976Y-6.0236
X8.9083Y-6.1024
X8.9083Y-6.1417
X8.9213Y-4.937
X8.937Y-6.0236
X8.9685Y-6.2008
X8.9764Y-5.5512
X8.9764Y-5.5984
X8.9764Y-5.6457
X8.9764Y-5.6929
X8.9764Y-5.7402
X8.9764Y-5.7874
X8.9764Y-5.8346
X8.9764Y-5.8819
X8.9764Y-5.9291
X8.9764Y-6.0236
X8.9843Y-4.9685
X8.9843Y-5.0079
X8.9843Y-5.0551
X9.0157Y-4.8031
X9.0157Y-6.0236
X9.0157Y-6.2598
X9.0236Y-5.5512
X9.0236Y-5.5984
X9.0236Y-5.6457
X9.0236Y-5.6929
X9.0236Y-5.7402
X9.0236Y-5.7874
X9.0236Y-5.8346
X9.0236Y-5.8819
X9.0236Y-5.9291
X9.0551Y-6.0236
X9.0551Y-6.063
X9.0551Y-6.1024
X9.0551Y-6.1417
X9.0551Y-6.1811
X9.0551Y-6.2205
X9.0551Y-6.2598
X9.1024Y-4.5354
X9.1024Y-4.6693
X9.1535Y-4.7343
X9.1575Y-4.6535
X9.1811Y-4.5827
X9.2205Y-4.5827
X9.2382Y-5.748
X9.252Y-4.6535
X9.2534Y-5.6752
X9.2879Y-5.6299
X9.3543Y-4.9606
X9.3543Y-4.9921
X9.3937Y-5.0157
X9.4016Y-4.8976
X9.4567Y-6.0394
X9.4567Y-6.0866
X9.4567Y-6.1339
X9.4567Y-6.1811
X9.4567Y-6.2362
X9.4646Y-4.9291
X9.4724Y-4.9685
X9.4882Y-4.8031
X9.5039Y-6.0394
X9.5039Y-6.2362
X9.5276Y-4.5354
X9.5276Y-4.6693
X9.5276Y-5.0157
X9.5512Y-6.0394
X9.5748Y-4.6535
X9.5768Y-4.7343
X9.6063Y-4.5827
X9.6457Y-4.5827
X9.6614Y-6.063
X9.6614Y-6.1024
X9.6614Y-6.1417
X9.6614Y-6.1811
X9.6614Y-6.2205
X9.6654Y-6.0335
X9.6772Y-4.6535
X9.7146Y-6.0335
X9.7638Y-6.0335
X9.7717Y-4.9685
X9.7953Y-4.9843
X9.7953Y-5.0551
X9.813Y-6.0335
X9.8268Y-4.9055
X9.8531Y-6.0925
X9.8531Y-6.1319
X9.8622Y-6.0335
X9.8898Y-4.9764
X9.8976Y-4.937
X9.8976Y-5.0236
X9.9114Y-6.0335
X9.9213Y-4.7953
X9.9213Y-6.1909
T2
X7.9413Y-4.344
X7.9413Y-4.844
X8.0413Y-4.544
T3
X6.1926Y-4.2406
X6.1926Y-4.4406
X6.2926Y-4.3406
X6.3926Y-4.2406
X6.3926Y-4.4406
X6.6311Y-4.2406
X6.6311Y-4.4406
X6.7311Y-4.3406
X6.8311Y-4.2406
X6.8311Y-4.4406
X7.0697Y-4.2406
X7.0697Y-4.4406
X7.1697Y-4.3406
X7.2697Y-4.2406
X7.2697Y-4.4406
X7.5083Y-4.2406
X7.5083Y-4.4406
X7.6083Y-4.3406
X7.7083Y-4.2406
X7.7083Y-4.4406
X8.3099Y-4.2406
X8.3099Y-4.4406
X8.4099Y-4.3406
X8.5099Y-4.2406
X8.5099Y-4.4406
X8.7484Y-4.2406
X8.7484Y-4.4406
X8.8484Y-4.3406
X8.9484Y-4.2406
X8.9484Y-4.4406
X9.187Y-4.2406
X9.187Y-4.4406
X9.287Y-4.3406
X9.387Y-4.2406
X9.387Y-4.4406
X9.6256Y-4.2406
X9.6256Y-4.4406
X9.7256Y-4.3406
X9.8256Y-4.2406
X9.8256Y-4.4406
T4
X7.7854Y-6.5256
X7.9823Y-6.5256
X8.1791Y-6.5256
M30
