%TF.GenerationSoftware,KiCad,Pcbnew,9.0.0*%
%TF.CreationDate,2025-03-13T08:47:34+01:00*%
%TF.ProjectId,zdc_fifo_test,7a64635f-6669-4666-9f5f-746573742e6b,rev?*%
%TF.SameCoordinates,Original*%
%TF.FileFunction,Soldermask,Top*%
%TF.FilePolarity,Negative*%
%FSLAX46Y46*%
G04 Gerber Fmt 4.6, Leading zero omitted, Abs format (unit mm)*
G04 Created by KiCad (PCBNEW 9.0.0) date 2025-03-13 08:47:34*
%MOMM*%
%LPD*%
G01*
G04 APERTURE LIST*
G04 Aperture macros list*
%AMRoundRect*
0 Rectangle with rounded corners*
0 $1 Rounding radius*
0 $2 $3 $4 $5 $6 $7 $8 $9 X,Y pos of 4 corners*
0 Add a 4 corners polygon primitive as box body*
4,1,4,$2,$3,$4,$5,$6,$7,$8,$9,$2,$3,0*
0 Add four circle primitives for the rounded corners*
1,1,$1+$1,$2,$3*
1,1,$1+$1,$4,$5*
1,1,$1+$1,$6,$7*
1,1,$1+$1,$8,$9*
0 Add four rect primitives between the rounded corners*
20,1,$1+$1,$2,$3,$4,$5,0*
20,1,$1+$1,$4,$5,$6,$7,0*
20,1,$1+$1,$6,$7,$8,$9,0*
20,1,$1+$1,$8,$9,$2,$3,0*%
G04 Aperture macros list end*
%ADD10RoundRect,0.155000X0.212500X0.155000X-0.212500X0.155000X-0.212500X-0.155000X0.212500X-0.155000X0*%
%ADD11R,0.650000X1.525000*%
%ADD12C,1.473200*%
%ADD13RoundRect,0.140000X0.170000X-0.140000X0.170000X0.140000X-0.170000X0.140000X-0.170000X-0.140000X0*%
%ADD14R,1.600000X1.300000*%
%ADD15R,1.600000X2.000000*%
%ADD16RoundRect,0.237500X-0.250000X-0.237500X0.250000X-0.237500X0.250000X0.237500X-0.250000X0.237500X0*%
%ADD17R,1.600000X3.500000*%
%ADD18R,12.200000X9.750000*%
%ADD19RoundRect,0.140000X0.140000X0.170000X-0.140000X0.170000X-0.140000X-0.170000X0.140000X-0.170000X0*%
%ADD20C,1.300000*%
%ADD21RoundRect,0.200000X-0.200000X-0.275000X0.200000X-0.275000X0.200000X0.275000X-0.200000X0.275000X0*%
%ADD22RoundRect,0.225000X-0.225000X-0.250000X0.225000X-0.250000X0.225000X0.250000X-0.225000X0.250000X0*%
%ADD23RoundRect,0.250000X-0.250000X-0.475000X0.250000X-0.475000X0.250000X0.475000X-0.250000X0.475000X0*%
%ADD24RoundRect,0.135000X-0.185000X0.135000X-0.185000X-0.135000X0.185000X-0.135000X0.185000X0.135000X0*%
%ADD25RoundRect,0.155000X-0.212500X-0.155000X0.212500X-0.155000X0.212500X0.155000X-0.212500X0.155000X0*%
%ADD26RoundRect,0.250000X0.250000X0.475000X-0.250000X0.475000X-0.250000X-0.475000X0.250000X-0.475000X0*%
%ADD27RoundRect,0.135000X0.185000X-0.135000X0.185000X0.135000X-0.185000X0.135000X-0.185000X-0.135000X0*%
%ADD28C,2.300000*%
%ADD29RoundRect,0.200000X0.275000X-0.200000X0.275000X0.200000X-0.275000X0.200000X-0.275000X-0.200000X0*%
%ADD30C,1.240000*%
%ADD31RoundRect,0.225000X0.250000X-0.225000X0.250000X0.225000X-0.250000X0.225000X-0.250000X-0.225000X0*%
%ADD32RoundRect,0.140000X-0.140000X-0.170000X0.140000X-0.170000X0.140000X0.170000X-0.140000X0.170000X0*%
%ADD33RoundRect,0.225000X0.225000X0.250000X-0.225000X0.250000X-0.225000X-0.250000X0.225000X-0.250000X0*%
%ADD34C,2.000000*%
%ADD35RoundRect,0.200000X0.200000X0.275000X-0.200000X0.275000X-0.200000X-0.275000X0.200000X-0.275000X0*%
%ADD36RoundRect,0.135000X0.135000X0.185000X-0.135000X0.185000X-0.135000X-0.185000X0.135000X-0.185000X0*%
%ADD37R,1.525000X0.650000*%
G04 APERTURE END LIST*
D10*
%TO.C,C41*%
X188367500Y-132400000D03*
X187232500Y-132400000D03*
%TD*%
D11*
%TO.C,IC5*%
X211345000Y-124962000D03*
X212615000Y-124962000D03*
X213885000Y-124962000D03*
X215155000Y-124962000D03*
X215155000Y-119538000D03*
X213885000Y-119538000D03*
X212615000Y-119538000D03*
X211345000Y-119538000D03*
%TD*%
D12*
%TO.C,J1*%
X159830960Y-110250000D03*
X157290960Y-107710000D03*
X157290960Y-112790000D03*
X162370960Y-112790000D03*
X162370960Y-107710000D03*
%TD*%
D13*
%TO.C,C55*%
X245000000Y-118080000D03*
X245000000Y-117120000D03*
%TD*%
D14*
%TO.C,VR1*%
X177550000Y-124350000D03*
D15*
X180450000Y-125600000D03*
D14*
X177550000Y-126850000D03*
%TD*%
D16*
%TO.C,R44*%
X196087500Y-125090000D03*
X197912500Y-125090000D03*
%TD*%
D17*
%TO.C,IC9*%
X217960000Y-155907000D03*
D18*
X220500000Y-145632000D03*
D17*
X223040000Y-155907000D03*
%TD*%
D19*
%TO.C,C1*%
X184680000Y-154400000D03*
X183720000Y-154400000D03*
%TD*%
D20*
%TO.C,REF\u002A\u002A*%
X155600000Y-169200000D03*
%TD*%
D21*
%TO.C,R24*%
X182175000Y-115600000D03*
X183825000Y-115600000D03*
%TD*%
D22*
%TO.C,C67*%
X225725000Y-128450000D03*
X227275000Y-128450000D03*
%TD*%
D23*
%TO.C,C45*%
X212700000Y-162800000D03*
X214600000Y-162800000D03*
%TD*%
D24*
%TO.C,R23*%
X160000000Y-117490000D03*
X160000000Y-118510000D03*
%TD*%
D19*
%TO.C,C24*%
X167105000Y-155750000D03*
X166145000Y-155750000D03*
%TD*%
D21*
%TO.C,R22*%
X159925000Y-115600000D03*
X161575000Y-115600000D03*
%TD*%
D25*
%TO.C,C40*%
X249832500Y-120800000D03*
X250967500Y-120800000D03*
%TD*%
D23*
%TO.C,C47*%
X212700000Y-166800000D03*
X214600000Y-166800000D03*
%TD*%
%TO.C,C43*%
X191250000Y-166200000D03*
X193150000Y-166200000D03*
%TD*%
D12*
%TO.C,J2*%
X170970640Y-110250000D03*
X168430640Y-107710000D03*
X168430640Y-112790000D03*
X173510640Y-112790000D03*
X173510640Y-107710000D03*
%TD*%
D21*
%TO.C,R26*%
X193350000Y-115600000D03*
X195000000Y-115600000D03*
%TD*%
D24*
%TO.C,R25*%
X182200000Y-117490000D03*
X182200000Y-118510000D03*
%TD*%
D26*
%TO.C,C3*%
X184550000Y-157400000D03*
X182650000Y-157400000D03*
%TD*%
D27*
%TO.C,R29*%
X249750000Y-122760000D03*
X249750000Y-121740000D03*
%TD*%
D28*
%TO.C,U1*%
X207750000Y-165750000D03*
X202750000Y-165750000D03*
X197750000Y-165750000D03*
%TD*%
D29*
%TO.C,R28*%
X247000000Y-117000000D03*
X247000000Y-115350000D03*
%TD*%
D21*
%TO.C,R20*%
X170800000Y-115600000D03*
X172450000Y-115600000D03*
%TD*%
D24*
%TO.C,R19*%
X183150000Y-125640000D03*
X183150000Y-126660000D03*
%TD*%
D12*
%TO.C,J6*%
X224750000Y-110250000D03*
X222210000Y-107710000D03*
X222210000Y-112790000D03*
X227290000Y-112790000D03*
X227290000Y-107710000D03*
%TD*%
D22*
%TO.C,C61*%
X239425000Y-127400000D03*
X240975000Y-127400000D03*
%TD*%
D26*
%TO.C,C34*%
X250950000Y-157250000D03*
X249050000Y-157250000D03*
%TD*%
D30*
%TO.C,VR2*%
X201708620Y-123038500D03*
X204248620Y-115418500D03*
X201708620Y-110338500D03*
%TD*%
D13*
%TO.C,C77*%
X211000000Y-118080000D03*
X211000000Y-117120000D03*
%TD*%
D22*
%TO.C,C27*%
X184025000Y-132650000D03*
X185575000Y-132650000D03*
%TD*%
D24*
%TO.C,R27*%
X193400000Y-117490000D03*
X193400000Y-118510000D03*
%TD*%
D12*
%TO.C,J7*%
X235889680Y-110250000D03*
X233349680Y-107710000D03*
X233349680Y-112790000D03*
X238429680Y-112790000D03*
X238429680Y-107710000D03*
%TD*%
D27*
%TO.C,R42*%
X216500000Y-122760000D03*
X216500000Y-121740000D03*
%TD*%
D25*
%TO.C,C39*%
X239065000Y-120800000D03*
X240200000Y-120800000D03*
%TD*%
D31*
%TO.C,C72*%
X219400000Y-117800000D03*
X219400000Y-116250000D03*
%TD*%
%TO.C,C57*%
X242000000Y-117775000D03*
X242000000Y-116225000D03*
%TD*%
D23*
%TO.C,C44*%
X191250000Y-168200000D03*
X193150000Y-168200000D03*
%TD*%
D12*
%TO.C,J4*%
X193250000Y-110250000D03*
X190710000Y-107710000D03*
X190710000Y-112790000D03*
X195790000Y-112790000D03*
X195790000Y-107710000D03*
%TD*%
D11*
%TO.C,IC3*%
X233845000Y-124962000D03*
X235115000Y-124962000D03*
X236385000Y-124962000D03*
X237655000Y-124962000D03*
X237655000Y-119538000D03*
X236385000Y-119538000D03*
X235115000Y-119538000D03*
X233845000Y-119538000D03*
%TD*%
D27*
%TO.C,R17*%
X191600000Y-129070000D03*
X191600000Y-128050000D03*
%TD*%
%TO.C,R36*%
X220500000Y-122760000D03*
X220500000Y-121740000D03*
%TD*%
D32*
%TO.C,C63*%
X238320000Y-126200000D03*
X239280000Y-126200000D03*
%TD*%
D23*
%TO.C,C42*%
X191250000Y-164200000D03*
X193150000Y-164200000D03*
%TD*%
D33*
%TO.C,C21*%
X170287500Y-144600000D03*
X168737500Y-144600000D03*
%TD*%
D19*
%TO.C,C35*%
X249500000Y-155750000D03*
X248540000Y-155750000D03*
%TD*%
D23*
%TO.C,C46*%
X212700000Y-164800000D03*
X214600000Y-164800000D03*
%TD*%
D22*
%TO.C,C60*%
X248845000Y-127650000D03*
X250395000Y-127650000D03*
%TD*%
D34*
%TO.C,REFx3*%
X165800000Y-117200000D03*
%TD*%
D20*
%TO.C,REF\u002A\u002A*%
X155600000Y-115600000D03*
%TD*%
D16*
%TO.C,R47*%
X196087500Y-132620000D03*
X197912500Y-132620000D03*
%TD*%
D13*
%TO.C,C65*%
X233200000Y-118080000D03*
X233200000Y-117120000D03*
%TD*%
D32*
%TO.C,C68*%
X226520000Y-127200000D03*
X227480000Y-127200000D03*
%TD*%
%TO.C,C7*%
X193020000Y-155000000D03*
X193980000Y-155000000D03*
%TD*%
D33*
%TO.C,C9*%
X216200000Y-155500000D03*
X214650000Y-155500000D03*
%TD*%
D19*
%TO.C,C25*%
X167125000Y-154750000D03*
X166165000Y-154750000D03*
%TD*%
D13*
%TO.C,C76*%
X212000000Y-118080000D03*
X212000000Y-117120000D03*
%TD*%
D27*
%TO.C,R32*%
X232500000Y-122760000D03*
X232500000Y-121740000D03*
%TD*%
D35*
%TO.C,R18*%
X188600000Y-131000000D03*
X186950000Y-131000000D03*
%TD*%
D31*
%TO.C,C66*%
X231200000Y-117775000D03*
X231200000Y-116225000D03*
%TD*%
D13*
%TO.C,C56*%
X244000000Y-118080000D03*
X244000000Y-117120000D03*
%TD*%
D19*
%TO.C,C22*%
X169513750Y-143250000D03*
X168553750Y-143250000D03*
%TD*%
D16*
%TO.C,R46*%
X196087500Y-130110000D03*
X197912500Y-130110000D03*
%TD*%
D31*
%TO.C,C30*%
X192400000Y-124175000D03*
X192400000Y-122625000D03*
%TD*%
D23*
%TO.C,C11*%
X224820000Y-157500000D03*
X226720000Y-157500000D03*
%TD*%
D36*
%TO.C,R33*%
X240910000Y-122800000D03*
X239890000Y-122800000D03*
%TD*%
D32*
%TO.C,C6*%
X193020000Y-156000000D03*
X193980000Y-156000000D03*
%TD*%
D26*
%TO.C,C23*%
X168200000Y-157250000D03*
X166300000Y-157250000D03*
%TD*%
D36*
%TO.C,R30*%
X251910000Y-122800000D03*
X250890000Y-122800000D03*
%TD*%
D32*
%TO.C,C2*%
X183920000Y-131450000D03*
X184880000Y-131450000D03*
%TD*%
%TO.C,C12*%
X224540000Y-156000000D03*
X225500000Y-156000000D03*
%TD*%
D27*
%TO.C,R34*%
X239000000Y-122760000D03*
X239000000Y-121740000D03*
%TD*%
D32*
%TO.C,C62*%
X238840000Y-125200000D03*
X239800000Y-125200000D03*
%TD*%
%TO.C,C33*%
X236682500Y-143000000D03*
X237642500Y-143000000D03*
%TD*%
D13*
%TO.C,C64*%
X234200000Y-118080000D03*
X234200000Y-117120000D03*
%TD*%
D32*
%TO.C,C26*%
X183920000Y-130450000D03*
X184880000Y-130450000D03*
%TD*%
D29*
%TO.C,R35*%
X236000000Y-117075000D03*
X236000000Y-115425000D03*
%TD*%
D27*
%TO.C,R31*%
X243250000Y-122760000D03*
X243250000Y-121740000D03*
%TD*%
D36*
%TO.C,R41*%
X218510000Y-122800000D03*
X217490000Y-122800000D03*
%TD*%
D29*
%TO.C,R39*%
X224750000Y-117075000D03*
X224750000Y-115425000D03*
%TD*%
D25*
%TO.C,C38*%
X227032500Y-120800000D03*
X228167500Y-120800000D03*
%TD*%
D19*
%TO.C,C36*%
X249500000Y-154750000D03*
X248540000Y-154750000D03*
%TD*%
D26*
%TO.C,C20*%
X170733750Y-146400000D03*
X168833750Y-146400000D03*
%TD*%
D24*
%TO.C,R21*%
X170800000Y-117490000D03*
X170800000Y-118510000D03*
%TD*%
D16*
%TO.C,R45*%
X196087500Y-127600000D03*
X197912500Y-127600000D03*
%TD*%
D23*
%TO.C,C31*%
X235700000Y-146000000D03*
X237600000Y-146000000D03*
%TD*%
D32*
%TO.C,C13*%
X224540000Y-155000000D03*
X225500000Y-155000000D03*
%TD*%
D13*
%TO.C,C28*%
X190150000Y-124430000D03*
X190150000Y-123470000D03*
%TD*%
D32*
%TO.C,C69*%
X226520000Y-126200000D03*
X227480000Y-126200000D03*
%TD*%
D13*
%TO.C,C71*%
X221400000Y-118080000D03*
X221400000Y-117120000D03*
%TD*%
D27*
%TO.C,R40*%
X210000000Y-122760000D03*
X210000000Y-121740000D03*
%TD*%
D25*
%TO.C,C37*%
X216632500Y-120800000D03*
X217767500Y-120800000D03*
%TD*%
D34*
%TO.C,REFx1*%
X165800000Y-165200000D03*
%TD*%
D36*
%TO.C,R37*%
X228910000Y-122800000D03*
X227890000Y-122800000D03*
%TD*%
D32*
%TO.C,C74*%
X216520000Y-125400000D03*
X217480000Y-125400000D03*
%TD*%
D11*
%TO.C,IC4*%
X221845000Y-124962000D03*
X223115000Y-124962000D03*
X224385000Y-124962000D03*
X225655000Y-124962000D03*
X225655000Y-119538000D03*
X224385000Y-119538000D03*
X223115000Y-119538000D03*
X221845000Y-119538000D03*
%TD*%
D22*
%TO.C,C32*%
X236025000Y-144200000D03*
X237575000Y-144200000D03*
%TD*%
D27*
%TO.C,R38*%
X227000000Y-122760000D03*
X227000000Y-121740000D03*
%TD*%
D34*
%TO.C,REFx2*%
X243000000Y-165200000D03*
%TD*%
D32*
%TO.C,C75*%
X215920000Y-126400000D03*
X216880000Y-126400000D03*
%TD*%
D17*
%TO.C,IC6*%
X159210000Y-156025000D03*
D18*
X161750000Y-145750000D03*
D17*
X164290000Y-156025000D03*
%TD*%
D23*
%TO.C,C5*%
X193300000Y-157500000D03*
X195200000Y-157500000D03*
%TD*%
D32*
%TO.C,C58*%
X249440000Y-126400000D03*
X250400000Y-126400000D03*
%TD*%
D13*
%TO.C,C70*%
X222400000Y-118080000D03*
X222400000Y-117120000D03*
%TD*%
D11*
%TO.C,IC2*%
X244595000Y-124962000D03*
X245865000Y-124962000D03*
X247135000Y-124962000D03*
X248405000Y-124962000D03*
X248405000Y-119538000D03*
X247135000Y-119538000D03*
X245865000Y-119538000D03*
X244595000Y-119538000D03*
%TD*%
D19*
%TO.C,C10*%
X216600000Y-154200000D03*
X215640000Y-154200000D03*
%TD*%
D22*
%TO.C,C73*%
X217225000Y-127600000D03*
X218775000Y-127600000D03*
%TD*%
D32*
%TO.C,C59*%
X249640000Y-125400000D03*
X250600000Y-125400000D03*
%TD*%
D12*
%TO.C,J5*%
X213610320Y-110250000D03*
X211070320Y-107710000D03*
X211070320Y-112790000D03*
X216150320Y-112790000D03*
X216150320Y-107710000D03*
%TD*%
D33*
%TO.C,C4*%
X184600000Y-155600000D03*
X183050000Y-155600000D03*
%TD*%
D17*
%TO.C,IC7*%
X241960000Y-156025000D03*
D18*
X244500000Y-145750000D03*
D17*
X247040000Y-156025000D03*
%TD*%
D12*
%TO.C,J3*%
X182110320Y-110250000D03*
X179570320Y-107710000D03*
X179570320Y-112790000D03*
X184650320Y-112790000D03*
X184650320Y-107710000D03*
%TD*%
%TO.C,J8*%
X247029360Y-110250000D03*
X244489360Y-107710000D03*
X244489360Y-112790000D03*
X249569360Y-112790000D03*
X249569360Y-107710000D03*
%TD*%
D29*
%TO.C,R43*%
X213750000Y-117075000D03*
X213750000Y-115425000D03*
%TD*%
D20*
%TO.C,REF\u002A\u002A*%
X250800000Y-169200000D03*
%TD*%
D17*
%TO.C,IC8*%
X186210000Y-155907000D03*
D18*
X188750000Y-145632000D03*
D17*
X191290000Y-155907000D03*
%TD*%
D26*
%TO.C,C8*%
X216200000Y-157400000D03*
X214300000Y-157400000D03*
%TD*%
D37*
%TO.C,IC1*%
X184688000Y-125495000D03*
X184688000Y-126765000D03*
X184688000Y-128035000D03*
X184688000Y-129305000D03*
X190112000Y-129305000D03*
X190112000Y-128035000D03*
X190112000Y-126765000D03*
X190112000Y-125495000D03*
%TD*%
D13*
%TO.C,C29*%
X191150000Y-123730000D03*
X191150000Y-122770000D03*
%TD*%
D31*
%TO.C,C78*%
X209000000Y-117775000D03*
X209000000Y-116225000D03*
%TD*%
M02*
